<?xml version="1.0" encoding="UTF-8"?>
<svg width="65px" height="87px" viewBox="0 0 65 87" version="1.1" xmlns="http://www.w3.org/2000/svg" xmlns:xlink="http://www.w3.org/1999/xlink">
    <!-- Generator: Sketch 51.2 (57519) - http://www.bohemiancoding.com/sketch -->
    <title>Logo</title>
    <desc>Created with Sketch.</desc>
    <defs>
        <polygon id="path-1" points="0.526556863 0.196524109 22.9620879 0.196524109 22.9620879 17.6521739 0.526556863 17.6521739"></polygon>
        <polygon id="path-3" points="0.264796949 0.232661957 45.7207855 0.232661957 45.7207855 74.0159968 0.264796949 74.0159968"></polygon>
    </defs>
    <g id="Guideline" stroke="none" stroke-width="1" fill="none" fill-rule="evenodd">
        <g id="02.2-Colors" transform="translate(-879.000000, -1302.000000)">
            <g id="Logo" transform="translate(878.000000, 1302.000000)">


                <g id="Group-23" transform="translate(0.745098, 69.347826)">
                    <mask id="mask-2" fill="white">
                        <use xlink:href="#path-1"></use>
                    </mask>
                    <g id="Clip-22"></g>
                    <path d="M22.7270275,16.1292957 C23.065851,16.3713826 23.0319686,16.7193826 22.6667922,16.9009478 L21.3190275,17.5212957 C20.953851,17.7028609 20.3703216,17.6990783 20.0051451,17.5023826 L1.17408627,7.98155652 C0.820203922,7.78864348 0.526556863,7.30068696 0.526556863,6.89216522 L0.526556863,0.624382609 C0.526556863,0.212078261 0.790086275,0.0721217391 1.1251451,0.317991304 L22.7270275,16.1292957 Z" id="Fill-21" fill="#564E4B" mask="url(#mask-2)"></path>
                </g>
                <g id="Group-26" transform="translate(7.647059, 0.000000)">
                    <mask id="mask-4" fill="white">
                        <use xlink:href="#path-3"></use>
                    </mask>
                    <g id="Clip-25"></g>
                    <path d="M10.4039674,21.306114 C10.0417351,21.5197053 9.69475475,22.0231705 9.61086938,22.4274684 L0.284341478,69.787526 C0.196643137,70.1918238 0.413982504,70.7181738 0.738085068,70.9660923 L4.74551795,73.8800879 C5.08105943,74.1280064 5.51955113,74.0250249 5.71401267,73.6664966 L45.6243837,0.606828152 C45.8264712,0.248299891 45.7006431,0.122433587 45.3422238,0.336024891 L10.4039674,21.306114 Z" id="Fill-24" fill="#C22218" mask="url(#mask-4)"></path>
                </g>
                <path d="M1.96341532,31.1124279 C1.63267884,31.3511359 1.37254902,31.881598 1.37254902,32.2946006 L1.37254902,64.2094746 C1.37254902,64.6186882 1.63267884,65.1529394 1.96341532,65.3916473 L4.59072646,67.3354121 C4.92146294,67.581698 5.23733485,67.4377155 5.30422538,67.0360799 L12.0304392,24.3755591 C12.0861813,23.9701345 11.8706452,23.837519 11.547341,24.0724379 L1.96341532,31.1124279 Z" id="Fill-27" fill="#9FC419"></path>
                <path d="M15.9105326,75.2288974 C15.7036923,75.5873064 15.8071124,76.0715397 16.1403551,76.3193756 L20.2541785,79.266717 C20.5912516,79.5069272 21.1198434,79.4878629 21.4339342,79.2209627 L49.9127769,55.1389341 C50.230698,54.8720338 50.3915738,54.3306076 50.2766625,53.937883 L43.2326018,29.9511759 C43.1176905,29.5546384 42.8457339,29.5203226 42.642724,29.8787316 L15.9105326,75.2288974 Z" id="Fill-29" fill="#F9CD00"></path>
                <path d="M49.1269416,62.800572 C48.9850989,62.4056285 48.6055739,62.2944308 48.2797191,62.5513358 L24.197132,81.2785602 C23.8751108,81.5316308 23.882778,81.9419119 24.2163,82.1873137 L27.0531536,84.254057 C27.382842,84.5032932 27.9617134,84.549306 28.3374049,84.3690891 L49.8438221,75.3467387 C50.2118464,75.1665218 50.4073593,74.6987246 50.2693502,74.3037811 L49.1269416,62.800572 Z" id="Fill-31" fill="#58B2E4"></path>
            </g>
        </g>
    </g>
</svg>