<?xml version="1.0" encoding="UTF-8"?>
<svg width="112px" height="44px" viewBox="0 0 112 44" version="1.1" xmlns="http://www.w3.org/2000/svg" xmlns:xlink="http://www.w3.org/1999/xlink">
    <!-- Generator: Sketch 51.2 (57519) - http://www.bohemiancoding.com/sketch -->
    <title>Logo</title>
    <desc>Created with Sketch.</desc>
    <defs>
        <polygon id="path-1" points="0.263278431 0.0982620546 11.4810439 0.0982620546 11.4810439 8.82608696 0.263278431 8.82608696"></polygon>
        <polygon id="path-3" points="0.132398474 0.116330978 22.8603928 0.116330978 22.8603928 37.0079984 0.132398474 37.0079984"></polygon>
    </defs>
    <g id="Guideline" stroke="none" stroke-width="1" fill="none" fill-rule="evenodd">
        <g id="02.6-Download" transform="translate(-390.000000, -169.000000)">
            <g id="Logo" transform="translate(390.000000, 169.000000)">
                <path d="M2.66393138,24.5192395 L2.66393138,29.1541712 L11.0591208,29.1541712 C11.7955076,29.1541712 12.3910865,28.5538012 12.3910865,27.8137225 L12.3910865,25.8596881 C12.3910865,25.1196094 11.7955076,24.5192395 11.0591208,24.5192395 L2.66393138,24.5192395 Z M2.66393138,21.8364541 L11.0591208,21.8364541 C13.2682811,21.8364541 15.0588235,23.6375641 15.0588235,25.8596881 L15.0588235,27.8137225 C15.0588235,30.0339586 13.2682811,31.8369565 11.0591208,31.8369565 L2.66393138,31.8369565 L0,31.8369565 L0,15.1304348 L14.0389184,15.1304348 L14.0389184,17.8132201 L2.66393138,17.8132201 L2.66393138,21.8364541 Z" id="Fill-1" fill="#564D4B"></path>
                <path d="M39.9991675,22.4481518 L39.9991675,17.8132201 L48.3924542,17.8132201 C49.1307437,17.8132201 49.7263227,18.4135901 49.7263227,19.1536688 L49.7263227,21.1077032 C49.7263227,21.8477819 49.1307437,22.4481518 48.3924542,22.4481518 L39.9991675,22.4481518 Z M39.9991675,25.1290492 L48.3924542,25.1290492 C50.5997116,25.1290492 52.3921569,23.3298272 52.3921569,21.1077032 L52.3921569,19.1536688 C52.3921569,16.9334327 50.5997116,15.1304348 48.3924542,15.1304348 L39.9991675,15.1304348 L37.3333333,15.1304348 L37.3333333,31.8369565 L39.9991675,31.8369565 L39.9991675,25.1290492 Z" id="Fill-3" fill="#564D4B"></path>
                <path d="M59.5229274,15.1304348 L69.9607843,15.1304348 L69.9607843,17.812917 L59.5210276,17.812917 C58.7876798,17.812917 58.1930221,18.4132191 58.1930221,19.1532142 L58.1930221,27.8122894 C58.1930221,28.5522845 58.7876798,29.163913 59.5210276,29.1525866 L59.528627,29.1525866 L69.9607843,29.1525866 L69.9607843,31.8369565 L59.5229274,31.8369565 C57.3190843,31.8369565 55.5294118,30.0341624 55.5294118,27.8122894 L55.5294118,19.1532142 C55.5294118,16.9332289 57.3190843,15.1304348 59.5229274,15.1304348" id="Fill-5" fill="#564D4B"></path>
                <path d="M21.2139346,27.2006608 L29.9252079,27.2006608 L31.8826489,31.8369565 L34.8235294,31.8369565 L27.0673817,15.1304348 L24.0736484,15.1304348 L16.3137255,31.8369565 L19.254606,31.8369565 L21.2139346,27.2006608 Z M25.5705151,18.0960784 L28.6189888,24.5200663 L22.5182661,24.5200663 L25.5705151,18.0960784 Z" id="Fill-7" fill="#564D4B"></path>
                <path d="M47.040077,39.0020177 L47.040077,37.1484639 L50.2283498,37.1484639 C50.5710938,37.1484639 50.8516919,37.4259307 50.8516919,37.7637985 L50.8516919,38.3829081 C50.8516919,38.7245509 50.5710938,39.0020177 50.2283498,39.0020177 L47.040077,39.0020177 Z M47.040077,40.5309164 L50.5221304,40.5309164 C51.5541289,40.5309164 52.3921569,39.7022911 52.3921569,38.6792502 L52.3921569,37.4712315 C52.3921569,36.446303 51.5541289,35.6195652 50.5221304,35.6195652 L47.040077,35.6195652 L45.4996121,35.6195652 C45.4996121,38.0884535 45.4901961,41.0311117 45.4901961,43.5 L47.030661,43.5 C47.030661,42.469409 47.040077,41.5615074 47.040077,40.5309164 Z" id="Fill-9" fill="#564D4B"></path>
                <polygon id="Fill-11" fill="#564D4B" points="37.3333333 35.6195652 43.9215686 35.6195652 43.9215686 37.1525028 38.8587159 37.1525028 38.8605806 43.5 37.3351981 43.5"></polygon>
                <path d="M55.0803341,43.5 L56.7937469,43.5 C57.6890437,42.0465481 61.4901961,35.6195652 61.4901961,35.6195652 L59.7362633,35.6195652 L57.3552369,39.8209498 L54.7735406,35.6195652 L53.0196078,35.6195652 L56.3287329,41.3027894 C56.1280629,41.6547973 55.4199294,42.9814507 55.0803341,43.5" id="Fill-13" fill="#564D4B"></path>
                <polygon id="Fill-15" fill="#564D4B" points="62.1176471 35.6195652 62.1176471 43.4981079 63.6728346 43.4981079 63.6709146 37.1521348 68.3940768 37.1540268 68.3921569 42.2285349 68.3921569 43.5 69.9607843 43.5 69.9607843 35.6195652"></polygon>
            </g>
        </g>
    </g>
</svg>